<?xml version="1.0" encoding="utf-8"?>
<!-- Generator: Adobe Illustrator 22.1.0, SVG Export Plug-In . SVG Version: 6.00 Build 0)  -->
<svg version="1.1" id="Capa_1" xmlns="http://www.w3.org/2000/svg" xmlns:xlink="http://www.w3.org/1999/xlink" x="0px" y="0px"
	 width="150px" height="36px" viewBox="0 0 150 36" style="enable-background:new 0 0 150 36;" xml:space="preserve">
<style type="text/css">
	.st0{fill:#F30000;}
	.st1{fill:#FCDF00;}
</style>
<g>
	<rect x="1.4" y="30.9" class="st0" width="74.9" height="4.9"/>
	<rect x="77.9" y="30.9" class="st1" width="70.8" height="4.9"/>
	<g>
		<g>
			<path d="M10.5,16.2l8.4,11.4h-5L6.1,16.7H5.4v10.9H1.2V0.9h4.8c3.6,0,6.2,0.7,7.8,2c1.8,1.5,2.6,3.4,2.6,5.8
				c0,1.9-0.6,3.5-1.7,4.9C13.7,15,12.3,15.8,10.5,16.2z M5.4,13.2h1.3c3.9,0,5.8-1.5,5.8-4.4c0-2.7-1.9-4.1-5.7-4.1H5.4V13.2z"/>
			<path d="M21,14.1c0-3.8,1.4-7,4.2-9.7c2.8-2.7,6.2-4,10.1-4c3.9,0,7.2,1.4,10,4.1c2.8,2.7,4.2,6,4.2,9.8c0,3.8-1.4,7.1-4.2,9.8
				c-2.8,2.7-6.2,4-10.2,4c-3.5,0-6.7-1.2-9.5-3.6C22.5,21.9,21,18.4,21,14.1z M25.1,14.2c0,2.9,1,5.4,3,7.3c2,1.9,4.3,2.8,7,2.8
				c2.9,0,5.3-1,7.2-2.9c2-2,2.9-4.3,2.9-7.1c0-2.8-1-5.2-2.9-7.1c-1.9-1.9-4.3-2.9-7.2-2.9c-2.8,0-5.2,1-7.2,2.9
				C26.1,9,25.1,11.4,25.1,14.2z"/>
			<path d="M74.7,2.4v4.8c-2.4-1.9-4.8-2.9-7.4-2.9c-2.8,0-5.2,1-7.1,3c-1.9,2-2.9,4.4-2.9,7.2c0,2.8,1,5.2,2.9,7.1
				c1.9,1.9,4.3,2.9,7.1,2.9c1.4,0,2.7-0.2,3.7-0.7c0.6-0.2,1.1-0.5,1.8-0.9c0.6-0.4,1.2-0.9,1.9-1.4v4.9c-2.3,1.3-4.8,2-7.4,2
				c-3.9,0-7.2-1.3-10-4c-2.7-2.7-4.1-5.9-4.1-9.7c0-3.4,1.1-6.4,3.4-9.1c2.8-3.3,6.5-4.9,10.9-4.9C70.1,0.4,72.4,1.1,74.7,2.4z"/>
		</g>
		<g>
			<path d="M105.1,28.1h-8.9l-6.8-10.4v10.4h-7.1V1h11.1c1.5,0,2.9,0.2,4,0.7c1.1,0.4,2.1,1,2.8,1.8c0.7,0.8,1.3,1.7,1.7,2.7
				c0.4,1,0.6,2.1,0.6,3.2c0,2.1-0.5,3.7-1.5,5c-1,1.3-2.5,2.2-4.4,2.6L105.1,28.1z M89.5,13.1h1.3c1.4,0,2.5-0.3,3.2-0.9
				c0.7-0.6,1.1-1.4,1.1-2.5c0-1.1-0.4-1.9-1.1-2.5c-0.7-0.6-1.8-0.9-3.2-0.9h-1.3V13.1z"/>
			<path d="M106.3,14.5c0-2,0.4-3.9,1.1-5.6c0.7-1.7,1.8-3.3,3.1-4.5c1.3-1.3,2.9-2.3,4.8-3c1.8-0.7,3.9-1.1,6.1-1.1
				c2.2,0,4.2,0.4,6.1,1.1c1.9,0.7,3.5,1.7,4.8,3c1.3,1.3,2.4,2.8,3.1,4.5c0.7,1.7,1.1,3.6,1.1,5.6s-0.4,3.9-1.1,5.6
				c-0.7,1.7-1.8,3.3-3.1,4.5c-1.3,1.3-2.9,2.3-4.8,3c-1.9,0.7-3.9,1.1-6.1,1.1c-2.2,0-4.3-0.4-6.1-1.1c-1.8-0.7-3.4-1.7-4.8-3
				c-1.3-1.3-2.4-2.8-3.1-4.5C106.7,18.4,106.3,16.6,106.3,14.5z M113.8,14.5c0,1.1,0.2,2.1,0.6,3c0.4,0.9,1,1.7,1.7,2.4
				c0.7,0.7,1.5,1.2,2.4,1.6c0.9,0.4,1.9,0.6,3,0.6c1,0,2-0.2,3-0.6c0.9-0.4,1.8-0.9,2.5-1.6c0.7-0.7,1.3-1.5,1.7-2.4
				c0.4-0.9,0.6-1.9,0.6-3s-0.2-2.1-0.6-3c-0.4-0.9-1-1.7-1.7-2.4c-0.7-0.7-1.5-1.2-2.5-1.6c-0.9-0.4-1.9-0.6-3-0.6
				c-1,0-2,0.2-3,0.6c-0.9,0.4-1.7,0.9-2.4,1.6c-0.7,0.7-1.3,1.5-1.7,2.4C114,12.5,113.8,13.5,113.8,14.5z"/>
			<path d="M148.2,1v27.1h-7.1V1H148.2z"/>
		</g>
	</g>
</g>
</svg>
